<?xml version="1.0" encoding="UTF-8"?><svg id="Layer_2" xmlns="http://www.w3.org/2000/svg" viewBox="0 0 2349.48 2349.48"><defs><style>.cls-1{fill:#fff;}.cls-2{fill:none;}</style></defs><g id="Layer_1-2"><rect class="cls-2" width="2349.48" height="2349.48"/><path class="cls-1" d="m1942.11,951.53h-133.03c-60.59-170.69-188.82-309.6-352.31-384.31v95.25c140.91,76.36,246.9,209.26,287.35,368.07h0s216.76,0,216.76,0h86.5c-63.31-383.66-375.89-684.24-765.39-729.17v86.04c315.07,40.36,572.89,266.14,660.12,564.13Z"/><path class="cls-1" d="m2032.15,1390.15c6.07-23.89,11.17-48.16,15.24-72.78h-215.66s-87.61,0-87.61,0c-40.31,158.28-145.74,290.81-285.95,367.3v95.39c162.83-74.86,290.49-213.47,350.91-383.68h133.03c-87.38,298.53-345.98,524.59-661.83,564.35v86.04c363.11-41.16,659.62-304.51,750.23-650.38h1.64v-6.23Z"/><path class="cls-1" d="m1328.96,1823.98v-.39h.05v-220.98c79.94-27.64,149.64-77.14,202.23-141.23l-59.66-59.66c-37.46,47.79-86.3,86.26-142.57,110.89-26.46,11.65-54.59,20.24-83.86,25.38-20.9,3.65-42.46,5.55-64.44,5.55s-43.53-1.91-64.49-5.61c-29.26-5.08-57.33-13.68-83.79-25.32-84.92-37.2-153.13-105.47-190.39-190.39-3.28-7.48-6.3-15.11-9.09-22.84l147.62-74.84c22.55,89.55,103.6,155.85,200.15,155.85,113.99,0,206.4-92.41,206.4-206.4s-92.41-206.4-206.4-206.4c-95.64,0-176.08,65.06-199.5,153.34l-148.04-72.99c2.73-7.52,5.67-14.94,8.86-22.23,37.26-84.92,105.47-153.18,190.39-190.39,26.46-11.59,54.53-20.19,83.79-25.39,42.52-7.41,86.42-7.47,128.94,0,29.27,5.19,57.39,13.74,83.86,25.39,56.58,24.79,105.46,63.58,142.99,111.68l59.8-59.79c-52.65-64.39-122.55-114.12-202.78-141.89v-220.97c-27.35-6.21-55.36-10.75-83.86-13.5v214.28c-42.64-6.09-86.3-6.09-128.94,0v-425.83c-26.76.59-43.48,2.39-66.52,5.99v-.13c-422.55,63.45-747.6,428.85-747.6,868.81,0,462.78,359.66,843.11,814.15,876.23v-85.63c-407.36-32.92-728.78-374.91-728.78-790.6,0-386.71,278.21-709.49,644.96-779.15v350.49c-131.15,45.39-235,149.25-280.33,280.39-9.31,26.88-16.13,54.88-20.24,83.79-3.05,21.08-4.55,42.64-4.55,64.5s1.5,43.42,4.55,64.5c4.11,28.84,10.93,56.86,20.24,83.73,45.33,131.15,149.19,235.01,280.33,280.39v133.45c-248.95-65.72-433.05-292.78-433.05-562.09,0-220.13,122.98-412.06,303.84-510.73v-95.42c-229.47,105.48-389.21,337.5-389.21,606.14,0,345.87,264.75,631.04,602.24,663.57v-85.83s-.02,0-.03,0v-128.84c21.08,2.98,42.58,4.54,64.49,4.54s43.42-1.55,64.44-4.54v214.16h.03s0,.51,0,.51c28.49-2.75,56.44-7.32,83.78-13.55Z"/></g></svg>