<?xml version="1.0" encoding="UTF-8"?><svg id="Layer_2" xmlns="http://www.w3.org/2000/svg" viewBox="0 0 333.04 333"><defs><style>.cls-1,.cls-2,.cls-3{fill:#fff;}.cls-2{opacity:0;}.cls-3{isolation:isolate;opacity:.8;}</style></defs><g id="Layer_1-2"><g id="Asset_1"><rect class="cls-2" width="333" height="333"/><path class="cls-1" d="M222.1,84.65c2.45-2.15,4.5-3.95,6.55-5.75-9.65-10.3-24.95-25.65-49.75-36.55.2-.15.35-.45.5-.45,13.25.1,26.6-.4,39.8.55,27.75,2,51.75,13.35,72.2,31.85,22.75,20.55,36.85,46.15,40.6,76.7,4.8,39.2-7.15,73.25-34.1,101.9-19.15,20.35-42.9,32.65-70.55,37.1-5.85.95-11.85,1.35-17.75,1.4-27.35.15-54.65.05-82,.05h-2.25v-93.3h41.2v51.4c.6.1.95.25,1.25.25,15.35-.1,30.75.5,46.05-.4,28.35-1.7,50.2-15.25,65-39.3,30.6-49.7,2.3-113.4-55.25-125.15-.25,0-.5-.1-1.45-.35h-.05v.05h0Z"/><path class="cls-3" d="M183.8,108.1c-29-29.55-70.3-29.25-96.6-15.6-31.45,16.35-48.25,48.05-44.75,84.3,3.45,35.25,33.7,69.2,72,72.65v41.65c-18.35-1.3-35.5-6.15-51.15-15.65-26.4-16.05-46.5-37.85-56.35-67.45-19.45-58.75,2.55-120.25,60-151.95,46.3-25.5,108.7-16.85,145.85,21.95-9.65,10-19.25,19.95-29,30.05h0v.05Z"/><path class="cls-3" d="M187.65,187.55h-62.45v-41.25h104.1v5.75c0,27-.05,54,0,80.95,0,2.55-.7,3.9-3.25,4.2-5.65.7-11.25,1.85-16.9,2.05-10,.35-20,.1-30,.1s-1.35-.1-2.25-.2c0-2.25-.1-4.4.05-6.5,0-.65.7-1.3,1.2-1.8,3.05-3.05,7.2-5.5,8.9-9.15,1.55-3.35.5-7.95.55-11.95v-22.2h.05Z"/><path class="cls-1" d="M166.35,135.6h-41.1v-41.8c4.9.55,9.65.8,14.35,1.6,9.1,1.55,17.5,5.1,25.1,10.4.85.6,1.75,1.8,1.75,2.75.15,8.6.05,17.25.05,25.85s-.1.65-.15,1.2h0Z"/></g></g></svg>