<?xml version="1.0" encoding="UTF-8"?><svg id="Layer_2" xmlns="http://www.w3.org/2000/svg" viewBox="0 0 100 100"><defs><style>.cls-1{fill:#fff;}.cls-2{fill:none;}</style></defs><g id="Layer_1-2" onmouseout="this.setAttribute(&apos;fill&apos;, &apos;blue&apos;);" onmouseover="this.setAttribute(&apos;fill&apos;, &apos;red&apos;);"><rect class="cls-2" width="100" height="100"/><path class="cls-1" d="M18.77,98.47c1.25-.88,2.26-1.84,3.09-3,.7-.96.96-2,.75-3.18-.87-4.89-2.1-9.68-3.24-14.5-2.79-11.64-5.77-23.23-8.65-34.84-.6-2.4-1.68-4.53-3.51-6.27-.07-.07-.14-.15-.27-.3,6.43-.1,12.77.12,19.12-.16-.22.24-.4.47-.61.68-1.19,1.14-1.52,2.54-1.25,4.1,1.17,7.1,2.71,14.11,4.21,21.14.86,4.05,1.73,8.11,2.6,12.16.05.23.11.47.28.71,3.1-12.45,6.2-24.91,9.3-37.37h.11c3.22,11.95,6.44,23.9,9.66,35.85h.12c.22-1.14.44-2.28.66-3.42,2.03-10.72,4.06-21.44,6.07-32.17.27-1.46-.18-2.79-1.07-3.95-.46-.6-1.11-.9-1.87-.97-2.89-.25-5.78-.47-8.65-.92-2.99-.47-5.95-1.07-8.76-2.22-1.54-.64-2.99-1.42-4.11-2.69-.32-.37-.61-.76-.81-1.29h20.88v-2.97h37.53c.12.38.14,2.35,0,2.93-1.19.05-2.4.14-3.59.33-2.89.46-5.67,1.25-8.09,2.98-1.99,1.42-3.27,3.3-3.73,5.73-.13.65-.03,1.25.11,1.88,1.29,5.78,2.82,11.5,4.31,17.23.82,3.2,1.67,6.39,2.52,9.59.04.14.08.26.14.47,2.95-.92,5.87-1.83,8.85-2.76.27,1.13.54,2.21.79,3.3.29,1.23.57,2.47.89,3.69.12.43.07.64-.39.82-2.31.89-4.6,1.83-6.9,2.75-.18.07-.35.15-.58.23.25,1.2.5,2.39.77,3.56,1.32,5.76,2.76,11.48,4.84,17.02.73,1.96,1.56,3.89,2.68,5.66.03.04.03.1.06.18h-21.36c-.03-.23.17-.32.27-.46,1.19-1.55,2.39-3.08,3.26-4.85.32-.65.45-1.3.33-2.04-.79-4.8-1.57-9.61-2.34-14.41,0-.07-.04-.13-.07-.23-.08,0-.15,0-.21.03-3.82,1.64-7.41,3.65-10.43,6.56-1.43,1.38-2.59,2.95-3.26,4.86-.42,1.2-.24,2.44-.27,3.66,0,.08.05.17.09.24,1.38,2.26,2.91,4.41,5.02,6.05.13.1.25.19.39.27.13.09.25.17.46.31h-21.94c.94-.87,1.55-1.88,1.71-3.1.16-1.22-.11-2.42-.31-3.61-.89-5.27-2.04-10.49-3-15.74-.02-.1-.05-.19-.16-.28-.16.77-.31,1.54-.46,2.31-.92,4.73-2.04,9.41-2.73,14.18-.14.96-.31,1.91-.29,2.88.02,1.3.34,2.47,1.51,3.37-6.88-.02-13.63-.02-20.5-.02ZM71.42,67.22c-1.76-4.82-3.51-9.59-5.25-14.35-.04,0-.09.02-.13.03-1.28,6.52-2.57,13.03-3.88,19.7,2.84-2.38,6.02-3.86,9.25-5.38ZM80.91,18.86c.27-1.64.54-3.2.8-4.8-11.43-1.75-22.76-3.5-34.14-5.25.45-2.29.89-4.54,1.34-6.84-.76-.15-1.47-.25-2.16-.43-.34-.09-.53,0-.73.28-1.11,1.64-2.23,3.28-3.36,4.93-.16.23-.24.45-.29.72-.4,2.3-.82,4.6-1.22,6.9-.09.48-.23.95-.22,1.47,1.7.3,3.38.61,5.07.91.3-1.54.6-3.02.9-4.52,11.3,2.53,22.6,4.72,34.02,6.63Z"/></g></svg>