<svg xmlns="http://www.w3.org/2000/svg" xml:space="preserve" viewBox="0 0 1000 1000" height="250" width="250">
	<path fill="#FFFFFF"
		d="M181.2 995.1c12.8-9 23.1-18.8 31.6-30.6 7.1-9.8 9.8-20.4 7.7-32.5-8.9-49.9-21.4-98.9-33.1-148.1-28.5-118.9-58.9-237.2-88.3-355.8-6.1-24.5-17.2-46.3-35.8-64-.7-.7-1.4-1.5-2.8-3.1 65.7-1 130.4 1.2 195.3-1.6-2.2 2.5-4.1 4.8-6.2 6.9-12.2 11.6-15.5 25.9-12.8 41.9 11.9 72.5 27.7 144.1 43 215.9 8.8 41.4 17.7 82.8 26.6 124.2.5 2.4 1.1 4.8 2.9 7.3 31.7-127.2 63.3-254.4 95-381.7h1.1c32.9 122 65.8 244.1 98.7 366.1h1.2c2.2-11.6 4.5-23.3 6.7-34.9 20.7-109.5 41.5-219 62-328.5 2.8-14.9-1.8-28.5-10.9-40.3-4.7-6.1-11.3-9.2-19.1-9.9-29.5-2.6-59-4.8-88.3-9.4-30.5-4.8-60.8-10.9-89.5-22.7-15.7-6.5-30.5-14.5-42-27.5-3.3-3.8-6.2-7.8-8.3-13.2h213.2v-30.3h383.3c1.2 3.9 1.4 24 .1 29.9-12.2.5-24.5 1.4-36.7 3.4-29.5 4.7-57.9 12.8-82.6 30.4-20.3 14.5-33.4 33.7-38.1 58.5-1.3 6.6-.3 12.8 1.1 19.2 13.2 59 28.8 117.4 44 176 8.4 32.7 17.1 65.3 25.7 97.9.4 1.4.8 2.7 1.4 4.8 30.1-9.4 59.9-18.7 90.4-28.2 2.8 11.5 5.5 22.6 8.1 33.7 3 12.6 5.8 25.2 9.1 37.7 1.2 4.4.7 6.5-4 8.4-23.6 9.1-47 18.7-70.5 28.1-1.8.7-3.6 1.5-5.9 2.4 2.6 12.3 5.1 24.4 7.9 36.4 13.5 58.8 28.2 117.2 49.4 173.8 7.5 20 15.9 39.7 27.4 57.8.3.4.3 1 .6 1.8H721.7c-.3-2.3 1.7-3.3 2.8-4.7 12.2-15.8 24.4-31.5 33.3-49.5 3.3-6.6 4.6-13.3 3.4-20.8-8.1-49-16-98.1-23.9-147.2-.1-.7-.4-1.3-.7-2.3-.8.1-1.5.1-2.1.3-39 16.7-75.7 37.3-106.5 67-14.6 14.1-26.5 30.1-33.3 49.6-4.3 12.3-2.5 24.9-2.8 37.4 0 .8.5 1.7.9 2.5 14.1 23.1 29.7 45 51.3 61.8 1.3 1 2.6 1.9 4 2.8 1.3.9 2.6 1.7 4.7 3.2H428.7c9.6-8.9 15.8-19.2 17.5-31.7 1.6-12.5-1.1-24.7-3.2-36.9-9.1-53.8-20.8-107.1-30.6-160.8-.2-1-.5-1.9-1.6-2.9-1.6 7.9-3.2 15.7-4.7 23.6-9.4 48.3-20.8 96.1-27.9 144.8-1.4 9.8-3.2 19.5-3 29.4.2 13.3 3.5 25.2 15.4 34.4-70.3-.2-139.2-.2-209.4-.2zm537.7-319.2c-18-49.2-35.8-97.9-53.6-146.6-.4.1-.9.2-1.3.3-13.1 66.6-26.2 133.1-39.6 201.2 29-24.3 61.5-39.4 94.5-54.9zM815.8 182c2.8-16.7 5.5-32.7 8.2-49-116.7-17.9-232.4-35.7-348.7-53.6C479.9 56 484.4 33 489 9.5c-7.8-1.5-15-2.6-22.1-4.4-3.5-.9-5.4-.1-7.5 2.9-11.3 16.8-22.8 33.5-34.3 50.3-1.6 2.3-2.5 4.6-3 7.4-4.1 23.5-8.4 47-12.5 70.5-.9 4.9-2.3 9.7-2.2 15 17.4 3.1 34.5 6.2 51.8 9.3 3.1-15.7 6.1-30.8 9.2-46.2 115.4 25.8 230.8 48.2 347.4 67.7z" />
</svg>